<?xml version="1.0" standalone="no"?>
<!DOCTYPE svg PUBLIC "-//W3C//DTD SVG 20010904//EN"
 "http://www.w3.org/TR/2001/REC-SVG-20010904/DTD/svg10.dtd">
<svg version="1.0" xmlns="http://www.w3.org/2000/svg"
 width="386.000000pt" height="386.000000pt" viewBox="0 0 386.000000 386.000000"
 preserveAspectRatio="xMidYMid meet">
<metadata>
Created by potrace 1.11, written by Peter Selinger 2001-2013
</metadata>
<g transform="translate(0.000000,386.000000) scale(0.100000,-0.100000)"
fill="#000000" stroke="none">
<path d="M1662 3323 c-6 -3 -9 -10 -5 -16 4 -6 0 -8 -10 -4 -10 4 -17 2 -17
-4 0 -6 -7 -9 -15 -5 -13 4 -13 2 -5 -14 8 -16 7 -18 -9 -15 -11 2 -22 -3 -25
-11 -4 -10 -2 -12 6 -8 7 4 8 3 4 -4 -4 -6 -13 -9 -20 -6 -7 3 -19 -3 -27 -13
-12 -16 -12 -17 2 -6 13 10 16 10 16 -2 0 -7 -3 -14 -6 -13 -3 0 -15 0 -26 -1
-17 -1 -18 -3 -5 -11 13 -8 12 -10 -2 -10 -10 0 -18 -4 -18 -9 0 -5 -12 -8
-27 -5 -18 3 -23 1 -15 -4 10 -7 9 -12 -4 -23 -15 -12 -17 -12 -9 0 5 10 4 12
-4 7 -9 -6 -9 -11 0 -22 10 -12 9 -13 -4 -9 -8 4 -18 1 -23 -6 -5 -8 -3 -10 6
-4 9 5 11 4 6 -3 -4 -7 -14 -12 -22 -12 -8 0 -14 -7 -12 -16 2 -10 -3 -19 -11
-22 -10 -3 -11 0 -5 9 6 12 5 12 -9 0 -10 -8 -15 -16 -12 -19 2 -3 -3 -11 -13
-19 -9 -8 -11 -11 -4 -8 12 6 12 3 1 -16 -7 -13 -13 -28 -14 -32 0 -5 -13 -19
-29 -32 -18 -15 -26 -27 -21 -36 6 -9 3 -11 -9 -6 -9 4 -15 3 -11 -2 3 -5 -1
-16 -9 -24 -8 -8 -12 -18 -8 -22 4 -5 1 -5 -5 -1 -7 4 -19 3 -27 -1 -14 -8
-16 -12 -16 -34 0 -5 -6 -7 -12 -3 -8 5 -7 0 2 -11 11 -14 12 -17 1 -11 -9 6
-12 5 -9 -5 3 -8 -2 -20 -11 -27 -9 -8 -10 -11 -4 -7 9 4 11 1 7 -9 -3 -9 -10
-13 -15 -10 -5 3 -9 0 -9 -6 0 -6 -4 -9 -8 -6 -5 3 -9 -1 -9 -9 0 -8 5 -12 11
-9 6 3 3 -1 -6 -9 -10 -8 -18 -20 -18 -28 0 -11 -2 -11 -11 1 -8 12 -10 12 -8
-5 2 -35 -1 -46 -11 -40 -5 3 -10 1 -10 -5 0 -6 -6 -8 -12 -4 -7 4 -10 4 -6
-1 4 -4 2 -15 -5 -23 -10 -13 -9 -15 3 -8 8 4 6 0 -5 -8 -11 -9 -25 -14 -31
-12 -7 3 -15 -3 -19 -12 -5 -14 -7 -14 -15 -2 -7 11 -10 11 -10 2 0 -9 -20
-12 -79 -10 -44 1 -77 6 -75 10 3 5 11 6 17 2 7 -3 0 5 -15 18 -24 21 -45 27
-95 31 -7 0 -13 5 -13 10 0 5 -11 7 -25 5 -13 -3 -23 -1 -22 5 1 5 -9 11 -23
12 -67 7 -127 8 -138 1 -7 -4 -12 -2 -12 4 0 7 -7 9 -15 6 -10 -4 -19 2 -25
17 -5 12 -9 18 -9 14 -1 -5 -8 -1 -17 7 -12 13 -39 16 -129 16 -115 0 -149 -5
-139 -21 3 -5 -2 -6 -10 -3 -11 4 -16 0 -16 -11 0 -9 -4 -13 -10 -10 -5 3 -10
1 -10 -4 0 -6 5 -11 11 -11 8 0 7 -5 -1 -15 -11 -13 -10 -14 5 -8 14 5 17 3
12 -10 -4 -11 -1 -15 13 -12 12 2 21 -3 25 -16 4 -11 11 -16 18 -12 7 4 6 -1
-2 -10 -8 -10 -11 -20 -7 -24 3 -3 6 -1 6 6 0 22 20 1 21 -22 0 -12 3 -16 6
-9 8 20 22 14 16 -8 -3 -12 0 -20 6 -20 7 0 11 -8 9 -17 -2 -13 3 -18 18 -17
22 0 25 -10 10 -35 -7 -11 -5 -13 7 -8 9 3 19 1 23 -5 4 -7 3 -8 -4 -4 -7 4
-12 3 -12 -2 0 -5 10 -14 23 -21 12 -6 14 -9 5 -7 -10 3 -20 0 -24 -6 -4 -7
-3 -8 4 -4 7 4 12 2 12 -4 0 -6 5 -8 11 -4 8 4 9 -1 4 -17 -7 -23 -7 -24 9 -4
15 20 15 20 11 -2 -2 -13 1 -23 6 -23 6 0 7 -4 4 -10 -9 -14 9 -12 24 3 10 10
11 8 5 -7 -5 -13 -4 -17 3 -13 7 5 9 -1 6 -15 -4 -17 -2 -20 5 -9 8 11 11 9
14 -10 2 -20 8 -24 33 -22 22 2 26 0 15 -7 -10 -6 -11 -10 -2 -10 6 0 12 -6
12 -14 0 -8 5 -18 12 -22 7 -5 9 -2 5 9 -4 11 -2 14 7 11 8 -3 12 -14 9 -27
-4 -18 -3 -19 6 -7 9 13 11 13 11 -2 0 -10 10 -22 21 -29 17 -9 20 -8 14 2 -5
8 -4 10 3 5 7 -4 12 -16 12 -27 0 -11 7 -19 18 -19 14 0 15 2 2 10 -8 5 -10
10 -5 10 6 -1 19 -7 29 -15 11 -8 17 -15 13 -15 -4 0 -3 -9 3 -21 7 -11 14
-18 17 -15 3 2 15 -4 26 -15 14 -13 24 -16 31 -9 5 5 15 10 21 10 5 0 3 -5 -5
-10 -13 -9 -13 -10 0 -10 13 0 13 -1 0 -10 -9 -6 -10 -10 -3 -10 6 0 15 5 18
10 5 8 12 7 22 -1 12 -10 16 -10 24 2 5 8 9 9 9 4 0 -6 -6 -17 -12 -24 -9 -9
-9 -12 -1 -7 6 3 13 -1 16 -11 4 -16 5 -16 6 1 1 20 1 20 17 0 8 -10 13 -13 9
-6 -9 17 3 15 22 -3 12 -12 18 -13 30 -4 11 10 14 10 11 -2 -2 -8 2 -13 9 -12
7 2 10 -4 7 -12 -7 -18 7 -20 25 -2 11 10 11 8 1 -11 -11 -23 -11 -23 14 -7
29 19 36 10 9 -11 -17 -13 -17 -14 2 -7 11 3 23 11 27 17 5 7 8 3 8 -9 0 -17
2 -17 10 -5 8 12 10 12 10 -5 0 -17 2 -17 10 -5 7 11 10 11 10 2 0 -7 4 -11
10 -7 5 3 16 -7 25 -22 9 -15 14 -21 12 -13 -3 10 2 16 13 16 15 0 17 -4 8
-20 -9 -16 -8 -18 6 -13 9 4 16 2 16 -3 0 -6 5 -9 11 -7 6 1 13 -7 15 -18 1
-11 8 -21 14 -23 7 -3 3 -10 -9 -18 -11 -8 -18 -21 -15 -29 4 -8 2 -15 -3 -15
-5 0 -8 -12 -7 -27 1 -34 -5 -53 -18 -53 -6 0 -5 8 3 18 11 15 11 15 -1 4 -8
-7 -16 -22 -16 -32 -3 -38 -4 -41 -16 -34 -8 5 -7 0 2 -11 9 -11 10 -16 3 -11
-8 4 -13 2 -13 -6 0 -9 -3 -9 -10 2 -8 13 -10 12 -10 -2 0 -10 -6 -18 -13 -18
-19 0 -47 -33 -47 -55 0 -18 -1 -18 -16 1 -8 10 -13 13 -9 6 3 -6 -1 -15 -9
-18 -9 -3 -13 -11 -9 -18 4 -6 -1 -5 -10 3 -17 13 -18 13 -21 -11 0 -7 -11
-14 -23 -16 -13 -2 -23 -8 -23 -13 0 -6 4 -8 9 -4 5 3 13 0 17 -7 4 -7 4 -10
-1 -6 -7 7 -85 -27 -85 -38 0 -3 5 -2 12 2 7 4 8 3 4 -4 -4 -7 -14 -12 -22
-12 -8 0 -14 -5 -14 -11 0 -5 6 -7 13 -3 9 6 8 3 -1 -8 -8 -10 -20 -14 -29
-11 -11 4 -14 2 -9 -5 4 -7 1 -12 -8 -12 -8 0 -18 -5 -22 -12 -5 -8 -2 -9 10
-5 10 4 15 3 11 -3 -3 -6 -12 -10 -19 -10 -17 0 -48 -35 -39 -43 3 -4 1 -7 -6
-7 -7 0 -10 -4 -7 -9 3 -5 -1 -12 -10 -15 -8 -3 -12 -2 -9 4 3 6 1 10 -4 10
-14 0 -14 -17 0 -26 8 -5 8 -8 0 -13 -6 -4 -12 -16 -14 -26 -1 -11 -7 -26 -11
-34 -6 -9 -5 -12 2 -7 7 4 6 -4 -3 -20 -7 -15 -11 -32 -9 -39 3 -7 1 -16 -5
-20 -6 -3 -11 -19 -11 -36 0 -16 -4 -29 -10 -29 -5 0 -10 -5 -10 -11 0 -5 6
-7 12 -3 10 5 10 3 0 -7 -11 -12 -14 -12 -23 1 -8 12 -9 10 -4 -7 4 -14 2 -23
-5 -23 -6 0 -8 -4 -5 -10 3 -5 0 -10 -7 -10 -10 0 -10 -2 1 -9 8 -5 9 -10 3
-12 -9 -3 -18 -94 -12 -124 1 -5 2 -19 1 -30 -1 -16 5 -21 26 -23 15 -1 29 -7
31 -12 2 -6 38 -10 79 -10 65 0 78 3 94 21 l19 22 29 -32 c24 -26 36 -31 75
-31 36 0 46 4 46 16 0 11 5 14 17 10 9 -4 37 -11 62 -16 25 -6 71 -16 101 -24
72 -19 234 -36 336 -36 44 0 103 -7 130 -15 27 -8 85 -15 129 -15 44 0 97 -5
118 -11 28 -7 42 -7 52 1 15 12 538 16 557 4 7 -4 8 -2 4 4 -5 8 1 12 14 12
14 0 19 -4 14 -12 -4 -7 2 -5 13 5 14 12 31 16 57 13 20 -2 36 0 36 5 0 5 3 8
8 8 4 -1 9 0 12 1 15 7 92 6 96 -2 3 -4 11 -5 17 -1 14 9 19 10 47 12 13 1 20
8 20 20 0 24 37 37 115 40 33 1 91 9 129 18 73 16 228 12 234 -7 6 -16 131
-12 147 4 8 7 11 17 7 22 -4 5 1 2 11 -5 20 -15 23 -2 5 18 -10 11 -10 13 0 7
7 -5 12 -1 12 11 0 15 2 16 10 3 6 -10 10 -11 10 -2 0 6 7 12 16 12 8 0 12 5
8 11 -4 7 0 9 14 5 12 -4 23 -2 28 5 5 8 3 9 -6 4 -8 -5 -11 -4 -7 3 4 5 15 9
25 8 9 -2 22 4 29 13 10 13 12 13 13 2 0 -9 10 -4 25 13 14 15 22 32 19 38 -4
7 -2 8 4 4 7 -4 12 -1 12 6 0 9 3 9 10 -2 5 -8 10 -10 10 -4 0 7 9 14 21 17
18 5 20 12 18 81 -1 42 -6 76 -10 76 -5 0 -9 7 -9 15 0 8 -6 15 -12 15 -9 0
-8 4 2 10 10 6 11 10 3 10 -7 0 -13 7 -13 15 0 8 -9 24 -20 35 -12 12 -15 20
-7 20 9 0 9 2 0 8 -7 4 -13 22 -15 40 -1 18 -6 32 -11 32 -4 0 -5 5 -2 10 3 5
-2 10 -12 10 -15 0 -16 2 -3 10 10 6 11 10 3 10 -7 0 -13 7 -13 16 0 8 -3 13
-7 11 -9 -5 -34 18 -33 30 1 15 -33 83 -42 83 -5 0 -6 -4 -3 -10 4 -6 -1 -7
-11 -3 -10 4 -13 8 -7 10 20 7 3 32 -18 28 -11 -2 -17 0 -14 6 4 5 1 9 -5 9
-6 0 -8 5 -4 13 5 8 2 7 -10 -2 -15 -13 -18 -12 -23 7 -4 16 -13 22 -32 22
-19 0 -31 9 -43 31 -10 17 -22 28 -28 24 -5 -3 -21 6 -35 21 -14 15 -25 22
-25 15 0 -7 -9 -6 -25 5 -14 9 -25 13 -25 10 0 -4 -6 -1 -14 6 -8 7 -12 16 -9
21 2 4 -2 7 -11 7 -8 0 -17 6 -19 13 -4 9 -6 9 -6 -1 -1 -10 -5 -10 -17 2 -8
9 -21 13 -27 9 -7 -3 -9 -3 -5 2 8 9 -16 35 -33 35 -6 0 -18 8 -25 18 -13 16
-14 16 -7 -2 6 -18 5 -18 -15 0 -23 19 -29 30 -12 19 14 -8 13 8 -1 22 -6 6
-18 9 -27 6 -11 -5 -13 -3 -7 7 6 10 4 12 -9 7 -10 -4 -19 -1 -22 8 -4 8 -10
15 -16 15 -5 0 -7 -4 -4 -8 3 -5 -1 -9 -9 -9 -8 0 -14 3 -13 6 2 22 -5 31 -22
31 -12 0 -20 7 -20 18 0 14 -2 15 -10 2 -8 -12 -10 -10 -10 8 0 13 -4 20 -10
17 -5 -3 -10 -1 -10 5 0 6 -3 9 -7 7 -5 -3 -9 8 -10 24 -1 16 2 27 6 24 5 -2
11 2 14 10 4 10 1 12 -10 8 -12 -5 -12 -2 3 15 18 22 30 29 20 14 -3 -5 1 -9
9 -9 7 0 12 7 10 16 -1 9 4 23 13 31 14 13 15 12 9 -3 -5 -13 3 -11 30 10 20
15 33 21 28 13 -8 -13 -7 -13 11 0 10 8 25 23 32 32 7 10 19 15 29 11 12 -5
14 -3 8 7 -6 10 -4 12 8 7 10 -3 17 -3 17 1 0 4 8 9 18 10 9 1 26 4 37 6 11 2
26 5 33 5 7 1 11 5 8 10 -7 11 22 23 36 14 7 -3 8 -1 4 5 -4 8 3 16 18 22 29
11 35 22 9 15 -10 -3 -1 3 20 13 22 10 35 22 32 30 -3 7 0 10 5 7 6 -3 10 0
10 7 0 11 2 11 9 0 6 -10 11 -9 22 4 12 16 12 17 -1 9 -12 -7 -13 -6 -3 7 7 8
10 18 6 21 -3 4 -1 7 4 7 6 0 14 -6 16 -12 5 -12 11 17 8 35 -1 5 3 6 9 2 6
-3 8 -11 5 -16 -4 -5 -4 -9 0 -9 7 0 29 52 26 64 -1 5 5 4 13 -4 16 -12 22 -4
17 23 -1 4 7 7 16 5 10 -2 17 2 15 10 -1 6 2 12 6 12 5 0 17 7 28 16 10 8 14
13 7 10 -6 -4 -15 -2 -18 4 -4 6 -3 10 2 9 4 -1 17 -1 28 0 17 1 18 3 5 11
-12 8 -10 10 10 10 20 0 22 2 10 10 -11 7 -11 10 -2 10 7 0 10 4 7 10 -3 5 0
7 8 4 10 -3 17 4 21 22 4 14 9 24 12 21 8 -8 51 37 46 47 -3 5 3 6 13 2 16 -6
16 -4 4 11 -9 11 -10 14 -1 9 6 -4 12 -3 12 3 0 6 7 8 15 5 8 -4 15 -1 15 5 0
6 7 11 16 11 13 0 14 3 4 15 -10 12 -8 13 10 10 19 -4 20 -2 8 12 -9 12 -9 15
0 9 7 -4 12 -2 12 4 0 6 4 9 9 6 5 -3 12 1 15 10 9 22 8 26 -6 18 -7 -4 -8 -3
-4 5 4 6 12 8 18 5 8 -5 9 -1 4 11 -5 15 -4 16 9 5 12 -10 15 -10 15 0 0 7 6
10 14 7 8 -3 17 1 20 9 3 9 10 12 16 9 5 -3 10 1 10 9 0 8 8 20 18 25 13 8 14
10 2 11 -13 0 -13 1 0 10 11 7 11 10 2 10 -7 0 -10 4 -7 10 3 6 -1 7 -10 4
-11 -4 -14 -2 -10 9 4 8 -1 17 -9 20 -9 4 -16 13 -16 22 0 8 -5 15 -11 15 -5
0 -7 -6 -3 -12 4 -7 -4 -4 -17 8 -20 18 -39 21 -120 23 -53 2 -99 -2 -103 -7
-3 -5 -18 -9 -33 -10 -40 -1 -57 -5 -65 -17 -5 -6 -8 -5 -8 2 0 7 -7 10 -15 7
-8 -4 -13 -10 -10 -15 3 -4 -4 -6 -15 -4 -17 3 -19 0 -16 -20 3 -14 0 -27 -5
-31 -5 -3 -6 -11 -2 -17 4 -7 -1 -6 -10 2 -15 12 -17 12 -12 -2 4 -8 1 -18 -6
-23 -8 -5 -10 -3 -4 5 6 10 3 11 -14 2 -11 -7 -21 -14 -21 -17 0 -3 5 -2 10 1
6 3 10 4 10 1 0 -2 -13 -11 -30 -20 -20 -9 -30 -11 -30 -3 0 6 -7 2 -15 -9 -8
-10 -15 -14 -15 -9 0 6 -5 3 -10 -5 -6 -10 -10 -11 -10 -2 0 6 -5 12 -11 12
-5 0 -7 -4 -4 -10 4 -6 -41 -10 -128 -10 -132 0 -134 0 -147 25 -7 13 -17 22
-23 18 -5 -3 -3 -10 4 -15 11 -8 11 -9 -1 -5 -9 2 -14 13 -12 27 3 19 0 22
-18 17 -17 -4 -19 -3 -10 8 9 10 6 15 -10 20 -12 4 -17 11 -13 18 4 7 -1 6
-10 -2 -11 -9 -17 -10 -17 -2 0 6 -6 11 -14 11 -8 0 -18 9 -21 20 -3 11 -10
20 -15 20 -5 0 -11 8 -14 18 -4 11 -17 18 -38 19 -22 2 -41 12 -57 30 -13 15
-20 21 -16 13 4 -10 1 -9 -8 3 -8 9 -19 17 -26 17 -6 0 -11 5 -11 11 0 5 -5 7
-12 3 -7 -5 -9 -2 -6 7 6 15 -16 42 -26 32 -3 -4 -6 1 -6 10 0 10 -6 17 -14
17 -8 0 -17 7 -20 16 -3 8 -10 12 -16 9 -5 -3 -7 0 -4 8 3 8 0 18 -7 23 -7 4
-10 3 -6 -3 3 -5 0 -10 -7 -10 -8 0 -12 5 -10 11 3 7 -2 20 -11 31 -13 17 -16
18 -25 5 -5 -8 -10 -10 -10 -5 0 6 5 16 11 22 9 9 7 10 -10 6 -13 -3 -21 -1
-21 6 0 7 5 9 12 5 7 -4 8 -3 4 4 -4 7 -14 12 -22 12 -8 0 -14 7 -14 16 0 8
-4 12 -10 9 -5 -3 -10 1 -10 9 0 8 -5 18 -12 22 -7 5 -8 3 -3 -7 8 -12 6 -12
-9 0 -13 11 -14 16 -4 22 9 6 9 9 1 9 -6 0 -15 -5 -18 -10 -4 -7 -14 -3 -25
10 -13 15 -19 17 -23 8 -4 -11 -6 -10 -6 0 -1 7 -5 10 -11 7 -5 -3 -10 0 -10
7 0 8 -10 14 -22 15 -11 1 -24 7 -28 14 -6 8 -9 8 -11 0 -3 -8 -12 -5 -26 8
-20 19 -35 20 -245 20 -122 -1 -229 -3 -236 -6z m782 -219 c3 -8 2 -12 -4 -9
-6 3 -10 10 -10 16 0 14 7 11 14 -7z m-1643 -541 c13 -16 12 -17 -3 -4 -10 7
-18 15 -18 17 0 8 8 3 21 -13z m-374 -345 c-3 -8 -6 -5 -6 6 -1 11 2 17 5 13
3 -3 4 -12 1 -19z m267 -204 c5 -14 4 -15 -9 -4 -17 14 -19 20 -6 20 5 0 12
-7 15 -16z m2640 -520 c5 -14 4 -15 -9 -4 -17 14 -19 20 -6 20 5 0 12 -7 15
-16z m-2612 -271 c-6 -2 -9 -10 -6 -15 4 -7 2 -8 -5 -4 -13 9 -5 26 12 25 9 0
8 -2 -1 -6z"/>
<path d="M1296 2954 c-5 -14 -4 -15 9 -4 17 14 19 20 6 20 -5 0 -12 -7 -15
-16z"/>
<path d="M3830 2740 c0 -5 5 -10 11 -10 5 0 7 5 4 10 -3 6 -8 10 -11 10 -2 0
-4 -4 -4 -10z"/>
<path d="M148 2563 c7 -3 16 -2 19 1 4 3 -2 6 -13 5 -11 0 -14 -3 -6 -6z"/>
<path d="M595 2060 c-3 -5 -1 -10 4 -10 6 0 11 5 11 10 0 6 -2 10 -4 10 -3 0
-8 -4 -11 -10z"/>
<path d="M2977 2033 c-4 -3 -7 -11 -7 -17 0 -6 5 -5 12 2 6 6 9 14 7 17 -3 3
-9 2 -12 -2z"/>
<path d="M746 1967 c3 -10 9 -15 12 -12 3 3 0 11 -7 18 -10 9 -11 8 -5 -6z"/>
<path d="M866 1902 c-3 -5 1 -9 9 -9 8 0 15 4 15 9 0 4 -4 8 -9 8 -6 0 -12 -4
-15 -8z"/>
<path d="M1126 1781 c-3 -4 1 -17 10 -27 14 -18 15 -18 5 2 -6 12 -7 24 -4 28
3 3 4 6 0 6 -3 0 -8 -4 -11 -9z"/>
</g>
</svg>
