<svg xmlns="http://www.w3.org/2000/svg" version="1.0" viewBox="0 0 386 386"><path d="M166 54v1l-1 1h-2l-1 1c-2-1-2-1-1 1s1 2-1 1l-2 2c-1 1-1 1 0 0l1 1h-2l-3 2c-1 1-1 1 0 0h2l-1 2h-2c-2 0-2 0-1 1v1l-2 1h-3c-1 0-2 0-1 1 1 0 1 1-1 2-1 1-1 1 0 0l-1-1v3c1 1 1 1 0 0l-3 1h1l1 1-3 1-1 2-1 2v-1h-1c-1 1-2 1-1 2l-2 2c-1 0-1 1 0 0v2l-1 3-3 3-3 4v1h-2v2l-1 2-1 1h-2c-2 0-2 1-2 3h-1v3h-1l-1 3c-1 1-1 1 0 0v1l-1 1-1 1-1 1h-1l1 1v1l-2 3h-2c0 4 0 5-1 4l-1 1h-2v3 1c1-1 1 0 0 0l-4 2-1 1h-3l-8 1-7-1h1l-1-2c-3-2-5-3-10-3l-1-1-2-1h-3l-2-2H50h-1l-1-1c-1 1-2 0-3-1l-1-2h-2c-1-2-4-2-13-2-11 0-14 0-13 2h-1l-2 1c0 1 0 2-1 1l-1 1 1 1v1c-1 2-1 2 1 1l1 1c-1 1 0 2 1 1l3 2 1 1v1l-1 3 1-1c0-2 2 0 2 2 0 1 0 2 1 1 1-2 2-1 1 1l1 2 1 2 2 1c2 0 2 1 1 4v1h3l-1 1h-1l2 2c2 0 2 1 1 1h-3l1 1h2l1 2c-1 2-1 2 0 0 2-2 2-2 2 1v2l1 1h2c1-1 1-1 0 0l1 2v1c0 2 0 2 1 1s1-1 1 1 1 2 4 2c2 0 2 0 1 1v1l1 1 1 3 1-1v-1c1 0 2 1 1 2 0 2 0 2 1 1h1l2 3h2v-1l1 3 2 2v-2l2 1 2 2v2l2 2 2 1 3 1 2-1v1 2 1l1-1h5l1-1-1 3v1l1 1h1c0-2 0-2 2 0 0 1 1 1 0 0 0-2 1-1 3 0 1 2 2 2 3 1h1l1 1v1c0 2 1 2 3 1v1c-1 2-1 2 1 0 3-1 4-1 1 2h1l2-1h1c0 2 0 2 1 1h1c0 2 0 2 1 1h2l3 3 1 1c-1-1 0-2 1-2 2 0 2 1 1 2v2h2l1 1 2 1 1 3-1 2-1 2-1 2v3c0 3-1 5-2 5v-2c1-1 1-1 0 0l-2 3c0 4 0 4-1 3v3h-1-2l-1 2c-2 0-5 3-5 5s0 2-2 0c0-1-1-1 0 0l-1 2-1 1h-1c-2-1-2-1-2 1 0 1-1 2-3 2l-2 1h1l2 1v1c-1-1-9 2-9 4l1-1 1 1-3 1-1 1h1v1c-1 1-2 2-3 1l-1 1v1l-3 1 1 1h2l-2 1c-2 0-5 3-4 4l-1 1-1 1-1 1c0 1-1 1 0 0l-1-1v4l-1 2-1 4v1l-1 2v3l-1 2-1 4-1 3-1 1h1v1h-2c-1-1-1-1-1 1v2 1l-1 1v2c-1 0-2 9-1 12v3c0 2 1 3 3 3l3 1 8 1c6 0 8 0 9-2l2-2 3 3c2 2 4 3 7 3 4 0 5 0 5-2l2-1 6 2 10 2c7 2 23 4 34 4l13 1 13 2 11 1h6a431 431 0 0160-1c1-2 3-2 5-2h4l1-1h12l5-1 2-2c0-2 4-4 12-4l12-2c8-1 23-1 24 1 0 2 13 1 15 0v-3l1 1c2 1 3 0 1-2v-1c1 1 1 0 1-1h2l2-1v-1l2-1h3l-1-1h-1l3-1c1 1 2 0 3-1h1l3-1 1-4 1-1h3l2-1c2-1 2-2 2-8l-1-8-1-2-1-1v-1-1l-1-2-2-3-1-2v-1l-1-4-1-3-1-1c1-1 0-1-1-1v-1-1l-1-2-1-1c-1 1-3-2-3-3l-4-8v1h-2v-1c2 0 0-3-2-3h-2v-2h-1c-2 1-2 1-3-1 0-1-1-2-3-2s-3-1-4-3l-3-3c0 1-2 0-3-2l-3-1-2-1-3-1h-1l-1-2-1-1-2-1h-1-2l-2-1-1-1c1 0-1-3-3-3l-3-2c-1-1-1-1 0 0 0 2 0 2-2 0s-3-3-1-2v-2h-3v-1l-1-1c-1 1-2 0-3-1l-1-1-1 1v1l-2-1c0-2 0-3-2-3l-2-2h-1c-1 1-1 1-1-1l-1-2h-1l-1-1-1-2 1-3 1-1h-1l1-2c1-2 3-3 2-1l1 1 1-2c-1-1 0-2 1-3h1c-1 2 0 1 3-1l3-1h1l3-3c1-1 2-2 3-1l1-1v-1h2l2-1h4l3-1 1-1c-1-1 2-2 3-1l1-1c-1-1 0-1 1-2 3-1 4-2 1-2l2-1 4-3v-1h2c1 1 1 1 2-1v-1c-1 1-1 1 0 0v-2l1-1 1 1c1 1 1-2 1-3l1-1 1 2v1l2-6h1c2 1 3 0 2-2l2-1 1-1 1-1 3-2v-1h-1v-1h3v-1c-1-1-1-1 1-1s2 0 1-1v-1l1-1c-1-1 0-1 0 0 1 0 2-1 2-3l2-2c0 1 5-3 4-4l2-1v-2h3l1-1 2-1v-2c-1-1-1-1 1-1 2 1 2 1 1-1v-1h1l1-1 1-1v-1l-1-1h2l1-2h2l1-1c1 1 2 0 2-1l2-1h1l2-3v-2-1-1h-1c-2 0-2 0-1-1l-1-2-2-3-1-1v1c0 1-1 1-2-1-2-1-4-2-12-2l-10 1-4 1-6 1h-1-1l-1 1h-2c-2 0-2 0-2 2v4 1h-3v3l-1-1h-1l-2 2 1-1h1l-3 2-3 1c0-1-1-1-1 1h-2l-1 1h-1l-1-1-1 1c1 1-4 1-12 1-14 0-14 0-15-3l-2-1v2l-1-3c0-2 0-2-2-2-2 1-2 1-1-1 1-1 1-1-1-2l-1-1h-3l-1-1-3-2-1-2-1-2-4-2-6-3-2-1c1 1 1 1 0 0l-3-2-1-1h-1l-1-1c1-2-1-4-2-3l-1-1-1-2-2-2-2-1c-1 1-1 0 0 0l-1-3-1 1v1l-1-1-2-4h-3l1-2h-1l-2-1h1l1-1-3-1-1-2-1-1h-1l-1-3-1 1c1 1 1 1 0 0-2-1-2-2-1-2v-1l-2 1-2-1c-1-2-2-2-2-1h-1l-1-1h-1l-2-2-3-1h-1l-3-1c-2-2-3-2-24-2l-24 1zm78 22c1 0 1 1 0 0l-1-1c0-1 1-1 1 1zM80 130c1 1 1 1 0 0l-2-2 2 2zm-37 34h-1l1-2v2zm26 21c1 1 1 1 0 0-2-1-2-2-1-2l1 2zm264 52c1 1 1 1 0 0-2-1-2-2-1-2l1 2zM72 264v1l-1 1c-1-1 0-3 1-3v1z"/><path d="M130 91c-1 1-1 1 0 0 2-1 2-2 1-2l-1 2zM383 112l1 1 1-1-2-1v1zM15 130h2l-2-1v1zM60 180v1l1-1v-1l-1 1zM298 183l-1 1h1l1-2-1 1zM75 189l1 1-1-1c-1-1-1-1 0 0zM87 196l1 1 1-1-1-1-1 1zM113 208l1 3v-1-2-1l-1 1z"/></svg>