<svg height="66" width="414" xmlns="http://www.w3.org/2000/svg" xmlns:xlink="http://www.w3.org/1999/xlink"><clipPath id="a"><path clip-rule="evenodd" d="m74 943v-24h-34v36c0 6.6274 5.37258 12 12 12h22z"/></clipPath><clipPath id="b"><path clip-rule="evenodd" d="m40 967h34v-48h-34zm34-24v-24h-32v36c0 6.6274 4.47715 12 10 12h22z"/></clipPath><clipPath id="c"><path d="m40 967h34l-32-48h-2z"/></clipPath><clipPath id="d"><path clip-rule="evenodd" d="m42 901v-18c0-6.6274-5.37258-12-12-12h-22v48h34z"/></clipPath><clipPath id="e"><path clip-rule="evenodd" d="m8 919h34v-48h-34zm32-18v-18c0-6.6274-4.47715-12-10-12h-22v48h32z"/></clipPath><clipPath id="f"><path d="m42 919h-2l-32-48h34z"/></clipPath><clipPath id="g"><path clip-rule="evenodd" d="m42 841v-18h-34v48h22c6.62742 0 12-5.3726 12-12z"/></clipPath><clipPath id="h"><path clip-rule="evenodd" d="m8 871h34v-48h-34zm32-30v-18h-32v48h22c5.52285 0 10-5.3726 10-12z"/></clipPath><clipPath id="i"><path d="m42 871h-34l32-48h2z"/></clipPath><clipPath id="j"><path clip-rule="evenodd" d="m74 799v-24h-22c-6.62742 0-12 5.3726-12 12v36h34z"/></clipPath><clipPath id="k"><path clip-rule="evenodd" d="m40 823h34v-48h-34zm34-24v-24h-22c-5.52285 0-10 5.3726-10 12v36h32z"/></clipPath><clipPath id="l"><path d="m40 823h2l32-48h-34z"/></clipPath><path d="m108.29023 6.799259h83.694427v25.609606h-83.694427z" fill="none" stroke="#717171" stroke-dasharray=".706281 .706281" stroke-width=".35314"/><g stroke-dasharray="1 1" stroke-width=".5"><path d="m-.107422 7.335938v-.923829h6.837402v.923829z"/><path d="m6.892578 7.335938v-.923829h6.837402v.923829z"/><path d="m13.892578 7.335938v-.923829h6.837402v.923829z"/><path d="m20.892578 7.335938v-.923829h6.837402v.923829z"/><path d="m27.892578 7.335938v-.923829h6.837402v.923829z"/><path d="m34.892578 7.335938v-.923829h6.837402v.923829z"/><path d="m41.892578 7.335938v-.923829h6.837402v.923829z"/><path d="m48.892578 7.335938v-.923829h6.837402v.923829z"/><path d="m55.892578 7.335938v-.923829h6.837402v.923829z"/><path d="m62.892578 7.335938v-.923829h6.837402v.923829z"/><path d="m69.892578 7.335938v-.923829h6.837402v.923829z"/><path d="m76.892578 7.335938v-.923829h6.837402v.923829z"/><path d="m83.892578 7.335938v-.923829h6.837402v.923829z"/><path d="m90.892578 7.335938v-.923829h6.837402v.923829z"/><path d="m97.892578 7.335938v-.923829h6.837402v.923829z"/><path d="m104.892578 7.335938v-.923829h6.837402v.923829z"/><path d="m111.892578 7.335938v-.923829h6.837402v.923829z"/><path d="m118.892578 7.335938v-.923829h6.837402v.923829z"/><path d="m125.892578 7.335938v-.923829h6.837402v.923829z"/><path d="m132.892578 7.335938v-.923829h6.837402v.923829z"/><path d="m139.892578 7.335938v-.923829h6.837402v.923829z"/><path d="m146.892578 7.335938v-.923829h6.837402v.923829z"/><path d="m153.892578 7.335938v-.923829h6.837402v.923829z"/><path d="m160.892578 7.335938v-.923829h6.837402v.923829z"/><path d="m167.892578 7.335938v-.923829h6.837402v.923829z"/><path d="m174.892578 7.335938v-.923829h6.837402v.923829z"/><path d="m181.892578 7.335938v-.923829h6.837402v.923829z"/><path d="m188.892578 7.335938v-.923829h6.837402v.923829z"/><path d="m195.892578 7.335938v-.923829h6.837402v.923829z"/><path d="m202.892578 7.335938v-.923829h6.837402v.923829z"/><path d="m209.892578 7.335938v-.923829h6.837402v.923829z"/><path d="m216.892578 7.335938v-.923829h6.837402v.923829z"/><path d="m223.892578 7.335938v-.923829h6.837402v.923829z"/><path d="m230.892578 7.335938v-.923829h6.837402v.923829z"/><path d="m237.892578 7.335938v-.923829h6.837402v.923829z"/><path d="m244.892578 7.335938v-.923829h6.837402v.923829z"/><path d="m251.892578 7.335938v-.923829h6.837402v.923829z"/><path d="m258.892578 7.335938v-.923829h6.837402v.923829z"/><path d="m265.892578 7.335938v-.923829h6.837402v.923829z"/><path d="m272.892578 7.335938v-.923829h6.837402v.923829z"/><path d="m279.892578 7.335938v-.923829h6.837402v.923829z"/><path d="m286.892578 7.335938v-.923829h6.837402v.923829z"/><path d="m293.892578 7.335938v-.923829h6.837402v.923829z"/><path d="m300.892578 7.335938v-.923829h6.837402v.923829z"/><path d="m307.892578 7.335938v-.923829h6.837402v.923829z"/><path d="m314.892578 7.335938v-.923829h6.837402v.923829z"/><path d="m321.892578 7.335938v-.923829h6.837402v.923829z"/><path d="m328.892578 7.335938v-.923829h6.837402v.923829z"/><path d="m335.892578 7.335938v-.923829h6.837402v.923829z"/><path d="m342.892578 7.335938v-.923829h6.837402v.923829z"/><path d="m349.892578 7.335938v-.923829h6.837402v.923829z"/><path d="m356.892578 7.335938v-.923829h6.837402v.923829z"/><path d="m363.892578 7.335938v-.923829h6.837402v.923829z"/><path d="m370.892578 7.335938v-.923829h6.837402v.923829z"/><path d="m377.892578 7.335938v-.923829h6.837402v.923829z"/><path d="m384.892578 7.335938v-.923829h6.837402v.923829z"/><path d="m391.892578 7.335938v-.923829h6.837402v.923829z"/><path d="m398.892578 7.335938v-.923829h6.837402v.923829z"/><path d="m405.892578 7.335938v-.923829h6.837402v.923829z"/><path d="m-.107422 33.335938v-.923829h6.837402v.923829z"/><path d="m6.892578 33.335938v-.923829h6.837402v.923829z"/><path d="m13.892578 33.335938v-.923829h6.837402v.923829z"/><path d="m20.892578 33.335938v-.923829h6.837402v.923829z"/><path d="m27.892578 33.335938v-.923829h6.837402v.923829z"/><path d="m34.892578 33.335938v-.923829h6.837402v.923829z"/><path d="m41.892578 33.335938v-.923829h6.837402v.923829z"/><path d="m48.892578 33.335938v-.923829h6.837402v.923829z"/><path d="m55.892578 33.335938v-.923829h6.837402v.923829z"/><path d="m62.892578 33.335938v-.923829h6.837402v.923829z"/><path d="m69.892578 33.335938v-.923829h6.837402v.923829z"/><path d="m76.892578 33.335938v-.923829h6.837402v.923829z"/><path d="m83.892578 33.335938v-.923829h6.837402v.923829z"/><path d="m90.892578 33.335938v-.923829h6.837402v.923829z"/><path d="m97.892578 33.335938v-.923829h6.837402v.923829z"/><path d="m104.892578 33.335938v-.923829h6.837402v.923829z"/><path d="m111.892578 33.335938v-.923829h6.837402v.923829z"/><path d="m118.892578 33.335938v-.923829h6.837402v.923829z"/><path d="m125.892578 33.335938v-.923829h6.837402v.923829z"/><path d="m132.892578 33.335938v-.923829h6.837402v.923829z"/><path d="m139.892578 33.335938v-.923829h6.837402v.923829z"/><path d="m146.892578 33.335938v-.923829h6.837402v.923829z"/><path d="m153.892578 33.335938v-.923829h6.837402v.923829z"/><path d="m160.892578 33.335938v-.923829h6.837402v.923829z"/><path d="m167.892578 33.335938v-.923829h6.837402v.923829z"/><path d="m174.892578 33.335938v-.923829h6.837402v.923829z"/><path d="m181.892578 33.335938v-.923829h6.837402v.923829z"/><path d="m188.892578 33.335938v-.923829h6.837402v.923829z"/><path d="m195.892578 33.335938v-.923829h6.837402v.923829z"/><path d="m202.892578 33.335938v-.923829h6.837402v.923829z"/><path d="m209.892578 33.335938v-.923829h6.837402v.923829z"/><path d="m216.892578 33.335938v-.923829h6.837402v.923829z"/><path d="m223.892578 33.335938v-.923829h6.837402v.923829z"/><path d="m230.892578 33.335938v-.923829h6.837402v.923829z"/><path d="m237.892578 33.335938v-.923829h6.837402v.923829z"/><path d="m244.892578 33.335938v-.923829h6.837402v.923829z"/><path d="m251.892578 33.335938v-.923829h6.837402v.923829z"/><path d="m258.892578 33.335938v-.923829h6.837402v.923829z"/><path d="m265.892578 33.335938v-.923829h6.837402v.923829z"/><path d="m272.892578 33.335938v-.923829h6.837402v.923829z"/><path d="m279.892578 33.335938v-.923829h6.837402v.923829z"/><path d="m286.892578 33.335938v-.923829h6.837402v.923829z"/><path d="m293.892578 33.335938v-.923829h6.837402v.923829z"/><path d="m300.892578 33.335938v-.923829h6.837402v.923829z"/><path d="m307.892578 33.335938v-.923829h6.837402v.923829z"/><path d="m314.892578 33.335938v-.923829h6.837402v.923829z"/><path d="m321.892578 33.335938v-.923829h6.837402v.923829z"/><path d="m328.892578 33.335938v-.923829h6.837402v.923829z"/><path d="m335.892578 33.335938v-.923829h6.837402v.923829z"/><path d="m342.892578 33.335938v-.923829h6.837402v.923829z"/><path d="m349.892578 33.335938v-.923829h6.837402v.923829z"/><path d="m356.892578 33.335938v-.923829h6.837402v.923829z"/><path d="m363.892578 33.335938v-.923829h6.837402v.923829z"/><path d="m370.892578 33.335938v-.923829h6.837402v.923829z"/><path d="m377.892578 33.335938v-.923829h6.837402v.923829z"/><path d="m384.892578 33.335938v-.923829h6.837402v.923829z"/><path d="m391.892578 33.335938v-.923829h6.837402v.923829z"/><path d="m398.892578 33.335938v-.923829h6.837402v.923829z"/><path d="m405.892578 33.335938v-.923829h6.837402v.923829z"/><path d="m111.11875 62.75v-11.214844h76.48226v11.214844z" fill="#fbd3bb"/><path d="m9.089355 20.830078h1.890625v2.169922h-1.890625z"/><path d="m16.089355 20.830078h1.890625v2.169922h-1.890625z"/><path d="m33.763184 22.715332q-.413575.220215-.848633.330322-.435059.110108-.923828.110108-1.541504 0-2.392823-1.090332-.851318-1.090332-.851318-3.066895 0-1.96582.856689-3.064209.85669-1.098388 2.387452-1.098388.488769 0 .923828.110107.435058.110107.848633.330322v1.111817q-.397461-.327637-.854004-.499512-.456543-.171875-.918457-.171875-1.058106 0-1.584473.816406-.526367.816406-.526367 2.465332 0 1.643555.526367 2.459961.526367.816406 1.584473.816406.472656 0 .926513-.171875.453858-.171875.845948-.499511z"/><path d="m39.167969 18.708496q.789551.209473 1.208496.743897.418945.534423.418945 1.334716 0 1.106446-.743896 1.737549-.743897.631104-2.059815.631104-.553222 0-1.127929-.102051-.574708-.102051-1.12793-.29541v-1.07959q.547851.284668 1.07959.424316.531738.139649 1.058105.139649.891602 0 1.369629-.402832.478027-.402832.478027-1.160156 0-.698243-.478027-1.109131-.478027-.410889-1.294434-.410889h-.827148v-.891602h.827148q.746582 0 1.165528-.327636.418945-.327637.418945-.913086 0-.617676-.389404-.947998-.389404-.330323-1.109131-.330323-.478027 0-.988281.107422-.510254.107422-1.068848.322266v-.999023q.649902-.171876 1.157471-.257813.507568-.085937.899658-.085937 1.170898 0 1.871826.588134.700928.588135.700928 1.560303 0 .660645-.36792 1.101074-.36792.44043-1.071533.623047z"/><path d="m51.341797 22.108398q1.369629 0 1.912109-.674072.542481-.674072.542481-2.435791 0-1.777832-.539795-2.451904-.539795-.674072-1.914795-.674072h-.515625v6.235839zm.021484-7.127441q1.836914 0 2.707031.977539.870118.977539.870118 3.040039 0 2.051758-.870118 3.026611-.870117.974854-2.707031.974854h-1.627441v-8.019043z"/><path d="m57.981934 18.955566v3.152832h1.283691q.945313 0 1.348145-.330322.402832-.330322.402832-1.087646 0-.999024-.424317-1.366944-.424316-.36792-1.32666-.36792zm0-3.083007v2.202148h1.262207q.784179 0 1.135986-.300781.351807-.300781.351807-.757324 0-.606934-.346436-.875489-.346436-.268554-1.141357-.268554zm-1.090332-.891602h2.374023q1.22998 0 1.895996.531738.666016.531739.666016 1.503907 0 .520996-.351807.945312-.351807.424316-1.05542.531738.789551.118164 1.238037.674073.448487.555908.448487 1.630127 0 1.090332-.714356 1.64624-.714355.555908-2.126953.555908h-2.374023z"/><path d="m71.251465 14.980957h4.721191v.913086h-3.630859v2.148437h3.29248v.913086h-3.29248v4.044434h-1.090332z"/><path d="m78.981934 18.955566v3.152832h1.283691q.945313 0 1.348145-.330322.402832-.330322.402832-1.087646 0-.999024-.424317-1.366944-.424316-.36792-1.32666-.36792zm0-3.083007v2.202148h1.262207q.784179 0 1.135986-.300781.351807-.300781.351807-.757324 0-.606934-.346436-.875489-.346436-.268554-1.141357-.268554zm-1.090332-.891602h2.374023q1.22998 0 1.895996.531738.666016.531739.666016 1.503907 0 .520996-.351807.945312-.351807.424316-1.05542.531738.789551.118164 1.238037.674073.448487.555908.448487 1.630127 0 1.090332-.714356 1.64624-.714355.555908-2.126953.555908h-2.374023z"/><path d="m94.308594 14.862793q1.283691 0 1.94165 1.047363.657959 1.047364.657959 3.099121 0 2.051758-.657959 3.099121-.657959 1.047364-1.94165 1.047364-1.283692 0-1.938965-1.047364-.655274-1.047363-.655274-3.099121 0-2.051757.655274-3.099121.655273-1.047363 1.938965-1.047363zm0 7.433594q.762695 0 1.135986-.811035.373291-.811036.373291-2.476075 0-.88623-.107422-1.600586l-2.55664 4.001465q.402832.886231 1.154785.886231zm0-6.574219q-.757324 0-1.130615.811035-.373291.811035-.373291 2.476074 0 .757325.10205 1.417969l2.50293-3.990723q-.408203-.714355-1.101074-.714355z"/><path d="m101.308594 14.862793q1.283691 0 1.94165 1.047363.657959 1.047364.657959 3.099121 0 2.051758-.657959 3.099121-.657959 1.047364-1.94165 1.047364-1.283692 0-1.938965-1.047364-.655274-1.047363-.655274-3.099121 0-2.051757.655274-3.099121.655273-1.047363 1.938965-1.047363zm0 7.433594q.762695 0 1.135986-.811035.373291-.811036.373291-2.476075 0-.88623-.107422-1.600586l-2.55664 4.001465q.402832.886231 1.154785.886231zm0-6.574219q-.757324 0-1.130615.811035-.373291.811035-.373291 2.476074 0 .757325.10205 1.417969l2.50293-3.990723q-.408203-.714355-1.101074-.714355z"/><path d="m113.981934 18.955566v3.152832h1.283691q.945313 0 1.348145-.330322.402832-.330322.402832-1.087646 0-.999024-.424317-1.366944-.424316-.36792-1.32666-.36792zm0-3.083007v2.202148h1.262207q.784179 0 1.135986-.300781.351807-.300781.351807-.757324 0-.606934-.346436-.875489-.346436-.268554-1.141357-.268554zm-1.090332-.891602h2.374023q1.22998 0 1.895996.531738.666016.531739.666016 1.503907 0 .520996-.351807.945312-.351807.424316-1.05542.531738.789551.118164 1.238037.674073.448487.555908.448487 1.630127 0 1.090332-.714356 1.64624-.714355.555908-2.126953.555908h-2.374023z" fill="#00b"/><path d="m120.981934 18.955566v3.152832h1.283691q.945313 0 1.348145-.330322.402832-.330322.402832-1.087646 0-.999024-.424317-1.366944-.424316-.36792-1.32666-.36792zm0-3.083007v2.202148h1.262207q.784179 0 1.135986-.300781.351807-.300781.351807-.757324 0-.606934-.346436-.875489-.346436-.268554-1.141357-.268554zm-1.090332-.891602h2.374023q1.22998 0 1.895996.531738.666016.531739.666016 1.503907 0 .520996-.351807.945312-.351807.424316-1.05542.531738.789551.118164 1.238037.674073.448487.555908.448487 1.630127 0 1.090332-.714356 1.64624-.714355.555908-2.126953.555908h-2.374023z" fill="#00b"/><path d="m135.341797 22.108398q1.369629 0 1.912109-.674072.542481-.674072.542481-2.435791 0-1.777832-.539795-2.451904-.539795-.674072-1.914795-.674072h-.515625v6.235839zm.021484-7.127441q1.836914 0 2.707031.977539.870118.977539.870118 3.040039 0 2.051758-.870118 3.026611-.870117.974854-2.707031.974854h-1.627441v-8.019043z" fill="#00d300"/><path d="m144.167969 18.708496q.789551.209473 1.208496.743897.418945.534423.418945 1.334716 0 1.106446-.743896 1.737549-.743897.631104-2.059815.631104-.553222 0-1.127929-.102051-.574708-.102051-1.12793-.29541v-1.07959q.547851.284668 1.07959.424316.531738.139649 1.058105.139649.891602 0 1.369629-.402832.478027-.402832.478027-1.160156 0-.698243-.478027-1.109131-.478027-.410889-1.294434-.410889h-.827148v-.891602h.827148q.746582 0 1.165528-.327636.418945-.327637.418945-.913086 0-.617676-.389404-.947998-.389404-.330323-1.109131-.330323-.478027 0-.988281.107422-.510254.107422-1.068848.322266v-.999023q.649902-.171876 1.157471-.257813.507568-.085937.899658-.085937 1.170898 0 1.871826.588134.700928.588135.700928 1.560303 0 .660645-.36792 1.101074-.36792.44043-1.071533.623047z" fill="#00d300"/><path d="m155.251465 14.980957h4.721191v.913086h-3.630859v2.148437h3.29248v.913086h-3.29248v4.044434h-1.090332z" fill="#fb0000"/><path d="m162.981934 18.955566v3.152832h1.283691q.945313 0 1.348145-.330322.402832-.330322.402832-1.087646 0-.999024-.424317-1.366944-.424316-.36792-1.32666-.36792zm0-3.083007v2.202148h1.262207q.784179 0 1.135986-.300781.351807-.300781.351807-.757324 0-.606934-.346436-.875489-.346436-.268554-1.141357-.268554zm-1.090332-.891602h2.374023q1.22998 0 1.895996.531738.666016.531739.666016 1.503907 0 .520996-.351807.945312-.351807.424316-1.05542.531738.789551.118164 1.238037.674073.448487.555908.448487 1.630127 0 1.090332-.714356 1.64624-.714355.555908-2.126953.555908h-2.374023z" fill="#fb0000"/><path d="m178.308594 14.862793q1.283691 0 1.94165 1.047363.657959 1.047364.657959 3.099121 0 2.051758-.657959 3.099121-.657959 1.047364-1.94165 1.047364-1.283692 0-1.938965-1.047364-.655274-1.047363-.655274-3.099121 0-2.051757.655274-3.099121.655273-1.047363 1.938965-1.047363zm0 7.433594q.762695 0 1.135986-.811035.373291-.811036.373291-2.476075 0-.88623-.107422-1.600586l-2.55664 4.001465q.402832.886231 1.154785.886231zm0-6.574219q-.757324 0-1.130615.811035-.373291.811035-.373291 2.476074 0 .757325.10205 1.417969l2.50293-3.990723q-.408203-.714355-1.101074-.714355z"/><path d="m185.308594 14.862793q1.283691 0 1.94165 1.047363.657959 1.047364.657959 3.099121 0 2.051758-.657959 3.099121-.657959 1.047364-1.94165 1.047364-1.283692 0-1.938965-1.047364-.655274-1.047363-.655274-3.099121 0-2.051757.655274-3.099121.655273-1.047363 1.938965-1.047363zm0 7.433594q.762695 0 1.135986-.811035.373291-.811036.373291-2.476075 0-.88623-.107422-1.600586l-2.55664 4.001465q.402832.886231 1.154785.886231zm0-6.574219q-.757324 0-1.130615.811035-.373291.811035-.373291 2.476074 0 .757325.10205 1.417969l2.50293-3.990723q-.408203-.714355-1.101074-.714355z"/><path d="m197.981934 18.955566v3.152832h1.283691q.945313 0 1.348145-.330322.402832-.330322.402832-1.087646 0-.999024-.424317-1.366944-.424316-.36792-1.32666-.36792zm0-3.083007v2.202148h1.262207q.784179 0 1.135986-.300781.351807-.300781.351807-.757324 0-.606934-.346436-.875489-.346436-.268554-1.141357-.268554zm-1.090332-.891602h2.374023q1.22998 0 1.895996.531738.666016.531739.666016 1.503907 0 .520996-.351807.945312-.351807.424316-1.05542.531738.789551.118164 1.238037.674073.448487.555908.448487 1.630127 0 1.090332-.714356 1.64624-.714355.555908-2.126953.555908h-2.374023z"/><path d="m207.167969 18.708496q.789551.209473 1.208496.743897.418945.534423.418945 1.334716 0 1.106446-.743896 1.737549-.743897.631104-2.059815.631104-.553222 0-1.127929-.102051-.574708-.102051-1.12793-.29541v-1.07959q.547851.284668 1.07959.424316.531738.139649 1.058105.139649.891602 0 1.369629-.402832.478027-.402832.478027-1.160156 0-.698243-.478027-1.109131-.478027-.410889-1.294434-.410889h-.827148v-.891602h.827148q.746582 0 1.165528-.327636.418945-.327637.418945-.913086 0-.617676-.389404-.947998-.389404-.330323-1.109131-.330323-.478027 0-.988281.107422-.510254.107422-1.068848.322266v-.999023q.649902-.171876 1.157471-.257813.507568-.085937.899658-.085937 1.170898 0 1.871826.588134.700928.588135.700928 1.560303 0 .660645-.36792 1.101074-.36792.44043-1.071533.623047z"/><path d="m222.763184 22.715332q-.413575.220215-.848633.330322-.435059.110108-.923828.110108-1.541504 0-2.392823-1.090332-.851318-1.090332-.851318-3.066895 0-1.96582.856689-3.064209.85669-1.098388 2.387452-1.098388.488769 0 .923828.110107.435058.110107.848633.330322v1.111817q-.397461-.327637-.854004-.499512-.456543-.171875-.918457-.171875-1.058106 0-1.584473.816406-.526367.816406-.526367 2.465332 0 1.643555.526367 2.459961.526367.816406 1.584473.816406.472656 0 .926513-.171875.453858-.171875.845948-.499511z"/><path d="m225.981934 18.955566v3.152832h1.283691q.945313 0 1.348145-.330322.402832-.330322.402832-1.087646 0-.999024-.424317-1.366944-.424316-.36792-1.32666-.36792zm0-3.083007v2.202148h1.262207q.784179 0 1.135986-.300781.351807-.300781.351807-.757324 0-.606934-.346436-.875489-.346436-.268554-1.141357-.268554zm-1.090332-.891602h2.374023q1.22998 0 1.895996.531738.666016.531739.666016 1.503907 0 .520996-.351807.945312-.351807.424316-1.05542.531738.789551.118164 1.238037.674073.448487.555908.448487 1.630127 0 1.090332-.714356 1.64624-.714355.555908-2.126953.555908h-2.374023z"/><path d="m239.251465 14.980957h4.721191v.913086h-3.630859v2.148437h3.29248v.913086h-3.29248v4.044434h-1.090332z"/><path d="m246.981934 18.955566v3.152832h1.283691q.945313 0 1.348145-.330322.402832-.330322.402832-1.087646 0-.999024-.424317-1.366944-.424316-.36792-1.32666-.36792zm0-3.083007v2.202148h1.262207q.784179 0 1.135986-.300781.351807-.300781.351807-.757324 0-.606934-.346436-.875489-.346436-.268554-1.141357-.268554zm-1.090332-.891602h2.374023q1.22998 0 1.895996.531738.666016.531739.666016 1.503907 0 .520996-.351807.945312-.351807.424316-1.05542.531738.789551.118164 1.238037.674073.448487.555908.448487 1.630127 0 1.090332-.714356 1.64624-.714355.555908-2.126953.555908h-2.374023z"/><path d="m262.308594 14.862793q1.283691 0 1.94165 1.047363.657959 1.047364.657959 3.099121 0 2.051758-.657959 3.099121-.657959 1.047364-1.94165 1.047364-1.283692 0-1.938965-1.047364-.655274-1.047363-.655274-3.099121 0-2.051757.655274-3.099121.655273-1.047363 1.938965-1.047363zm0 7.433594q.762695 0 1.135986-.811035.373291-.811036.373291-2.476075 0-.88623-.107422-1.600586l-2.55664 4.001465q.402832.886231 1.154785.886231zm0-6.574219q-.757324 0-1.130615.811035-.373291.811035-.373291 2.476074 0 .757325.10205 1.417969l2.50293-3.990723q-.408203-.714355-1.101074-.714355z"/><path d="m269.308594 14.862793q1.283691 0 1.94165 1.047363.657959 1.047364.657959 3.099121 0 2.051758-.657959 3.099121-.657959 1.047364-1.94165 1.047364-1.283692 0-1.938965-1.047364-.655274-1.047363-.655274-3.099121 0-2.051757.655274-3.099121.655273-1.047363 1.938965-1.047363zm0 7.433594q.762695 0 1.135986-.811035.373291-.811036.373291-2.476075 0-.88623-.107422-1.600586l-2.55664 4.001465q.402832.886231 1.154785.886231zm0-6.574219q-.757324 0-1.130615.811035-.373291.811035-.373291 2.476074 0 .757325.10205 1.417969l2.50293-3.990723q-.408203-.714355-1.101074-.714355z"/><path d="m283.308594 15.937012-1.144043 4.103515h2.288086zm-.655274-.956055h1.315918l2.45459 8.019043h-1.122558l-.590821-2.089355h-2.809082l-.580078 2.089355h-1.122559z"/><path d="m291.167969 18.708496q.789551.209473 1.208496.743897.418945.534423.418945 1.334716 0 1.106446-.743896 1.737549-.743897.631104-2.059815.631104-.553222 0-1.127929-.102051-.574708-.102051-1.12793-.29541v-1.07959q.547851.284668 1.07959.424316.531738.139649 1.058105.139649.891602 0 1.369629-.402832.478027-.402832.478027-1.160156 0-.698243-.478027-1.109131-.478027-.410889-1.294434-.410889h-.827148v-.891602h.827148q.746582 0 1.165528-.327636.418945-.327637.418945-.913086 0-.617676-.389404-.947998-.389404-.330323-1.109131-.330323-.478027 0-.988281.107422-.510254.107422-1.068848.322266v-.999023q.649902-.171876 1.157471-.257813.507568-.085937.899658-.085937 1.170898 0 1.871826.588134.700928.588135.700928 1.560303 0 .660645-.36792 1.101074-.36792.44043-1.071533.623047z"/><path d="m306.763184 22.715332q-.413575.220215-.848633.330322-.435059.110108-.923828.110108-1.541504 0-2.392823-1.090332-.851318-1.090332-.851318-3.066895 0-1.96582.856689-3.064209.85669-1.098388 2.387452-1.098388.488769 0 .923828.110107.435058.110107.848633.330322v1.111817q-.397461-.327637-.854004-.499512-.456543-.171875-.918457-.171875-1.058106 0-1.584473.816406-.526367.816406-.526367 2.465332 0 1.643555.526367 2.459961.526367.816406 1.584473.816406.472656 0 .926513-.171875.453858-.171875.845948-.499511z"/><path d="m312.167969 18.708496q.789551.209473 1.208496.743897.418945.534423.418945 1.334716 0 1.106446-.743896 1.737549-.743897.631104-2.059815.631104-.553222 0-1.127929-.102051-.574708-.102051-1.12793-.29541v-1.07959q.547851.284668 1.07959.424316.531738.139649 1.058105.139649.891602 0 1.369629-.402832.478027-.402832.478027-1.160156 0-.698243-.478027-1.109131-.478027-.410889-1.294434-.410889h-.827148v-.891602h.827148q.746582 0 1.165528-.327636.418945-.327637.418945-.913086 0-.617676-.389404-.947998-.389404-.330323-1.109131-.330323-.478027 0-.988281.107422-.510254.107422-1.068848.322266v-.999023q.649902-.171876 1.157471-.257813.507568-.085937.899658-.085937 1.170898 0 1.871826.588134.700928.588135.700928 1.560303 0 .660645-.36792 1.101074-.36792.44043-1.071533.623047z"/><path d="m323.251465 14.980957h4.721191v.913086h-3.630859v2.148437h3.29248v.913086h-3.29248v4.044434h-1.090332z"/><path d="m330.981934 18.955566v3.152832h1.283691q.945313 0 1.348145-.330322.402832-.330322.402832-1.087646 0-.999024-.424317-1.366944-.424316-.36792-1.32666-.36792zm0-3.083007v2.202148h1.262207q.784179 0 1.135986-.300781.351807-.300781.351807-.757324 0-.606934-.346436-.875489-.346436-.268554-1.141357-.268554zm-1.090332-.891602h2.374023q1.22998 0 1.895996.531738.666016.531739.666016 1.503907 0 .520996-.351807.945312-.351807.424316-1.05542.531738.789551.118164 1.238037.674073.448487.555908.448487 1.630127 0 1.090332-.714356 1.64624-.714355.555908-2.126953.555908h-2.374023z"/><path d="m346.308594 14.862793q1.283691 0 1.94165 1.047363.657959 1.047364.657959 3.099121 0 2.051758-.657959 3.099121-.657959 1.047364-1.94165 1.047364-1.283692 0-1.938965-1.047364-.655274-1.047363-.655274-3.099121 0-2.051757.655274-3.099121.655273-1.047363 1.938965-1.047363zm0 7.433594q.762695 0 1.135986-.811035.373291-.811036.373291-2.476075 0-.88623-.107422-1.600586l-2.55664 4.001465q.402832.886231 1.154785.886231zm0-6.574219q-.757324 0-1.130615.811035-.373291.811035-.373291 2.476074 0 .757325.10205 1.417969l2.50293-3.990723q-.408203-.714355-1.101074-.714355z"/><path d="m353.308594 14.862793q1.283691 0 1.94165 1.047363.657959 1.047364.657959 3.099121 0 2.051758-.657959 3.099121-.657959 1.047364-1.94165 1.047364-1.283692 0-1.938965-1.047364-.655274-1.047363-.655274-3.099121 0-2.051757.655274-3.099121.655273-1.047363 1.938965-1.047363zm0 7.433594q.762695 0 1.135986-.811035.373291-.811036.373291-2.476075 0-.88623-.107422-1.600586l-2.55664 4.001465q.402832.886231 1.154785.886231zm0-6.574219q-.757324 0-1.130615.811035-.373291.811035-.373291 2.476074 0 .757325.10205 1.417969l2.50293-3.990723q-.408203-.714355-1.101074-.714355z"/><path d="m367.201172 19.444336q.692871 0 1.087646-.499512.394776-.499512.394776-1.380371 0-.880859-.394776-1.380371-.394775-.499512-1.087646-.499512-.719727 0-1.084961.475342-.365234.475342-.365234 1.404541 0 .93457.362548 1.407227.362549.472656 1.087647.472656zm-1.933594 3.38916v-.999023q.338379.19873.719727.303466.381347.104737.794922.104737 1.03125 0 1.560302-.776123.529053-.776123.529053-2.285401-.252441.53711-.708984.824463-.456543.287354-1.047364.287354-1.160156 0-1.79663-.714356-.636475-.714355-.636475-2.024902 0-1.294434.652588-2.006104.652588-.711669 1.844971-.711669 1.396484 0 2.046386 1.004394.649903 1.004395.649903 3.158203 0 2.024903-.781495 3.091065-.781494 1.066162-2.269287 1.066162-.39209 0-.78955-.083252-.397461-.083252-.768067-.239014z"/><path d="m372.981934 18.955566v3.152832h1.283691q.945313 0 1.348145-.330322.402832-.330322.402832-1.087646 0-.999024-.424317-1.366944-.424316-.36792-1.32666-.36792zm0-3.083007v2.202148h1.262207q.784179 0 1.135986-.300781.351807-.300781.351807-.757324 0-.606934-.346436-.875489-.346436-.268554-1.141357-.268554zm-1.090332-.891602h2.374023q1.22998 0 1.895996.531738.666016.531739.666016 1.503907 0 .520996-.351807.945312-.351807.424316-1.05542.531738.789551.118164 1.238037.674073.448487.555908.448487 1.630127 0 1.090332-.714356 1.64624-.714355.555908-2.126953.555908h-2.374023z"/><path d="m387.089355 20.830078h1.890625v2.169922h-1.890625z"/><path d="m394.089355 20.830078h1.890625v2.169922h-1.890625z"/></g><g stroke-dasharray="2.299918 2.299918" stroke-width="1.149959" transform="matrix(0 -.44979823 .42029827 0 -216.52413 62.621007)"><g clip-path="url(#a)"><g clip-path="url(#b)" stroke-dasharray="2.299918 2.299918" stroke-width="1.149959"><g clip-path="url(#c)" stroke-dasharray="2.299918 2.299918" stroke-width="1.149959"><path d="m40 967h34v-48h-34z" stroke-dasharray="2.299918 2.299918" stroke-width="1.149959"/></g></g></g><g clip-path="url(#d)"><g clip-path="url(#e)" stroke-dasharray="2.299918 2.299918" stroke-width="1.149959"><g clip-path="url(#f)" stroke-dasharray="2.299918 2.299918" stroke-width="1.149959"><path d="m8 919h34v-48h-34z" stroke-dasharray="2.299918 2.299918" stroke-width="1.149959"/></g></g></g><g clip-path="url(#g)"><g clip-path="url(#h)" stroke-dasharray="2.299918 2.299918" stroke-width="1.149959"><g clip-path="url(#i)" stroke-dasharray="2.299918 2.299918" stroke-width="1.149959"><path d="m8 871h34v-48h-34z" stroke-dasharray="2.299918 2.299918" stroke-width="1.149959"/></g></g></g><g clip-path="url(#j)"><g clip-path="url(#k)" stroke-dasharray="2.299918 2.299918" stroke-width="1.149959"><g clip-path="url(#l)" stroke-dasharray="2.299918 2.299918" stroke-width="1.149959"><path d="m40 823h34v-48h-34z" stroke-dasharray="2.299918 2.299918" stroke-width="1.149959"/></g></g></g></g></svg>